<?xml version="1.0" encoding="UTF-8"?>
<svg id="Layer_2" data-name="Layer 2" xmlns="http://www.w3.org/2000/svg" viewBox="0 0 198.51 100.36">
  <defs>
    <style>
      .cls-1 {
        fill: #063457;
      }

      .cls-2 {
        fill: #fa6204;
      }
    </style>
  </defs>
  <g id="Layer_1-2" data-name="Layer 1">
    <g id="PFo3Ss.tif">
      <g>
        <path class="cls-1" d="M120.89,100.36c-11.88,0-23.77,0-35.65,0v-15.42c2.39-2.22,4.54-4.7,6.84-6.99,2.11-2.1,4.28-4.14,6.39-6.25,8.09-8.09,17.18-16.17,24.81-24.56,4.44-4.88,8.36-10.68,7.07-17.63-2.09-11.31-15.93-13.04-24.66-8.31-6.12,3.32-9.9,9.39-11.67,16-2.17,8.08-1.34,16.01-2.86,24.2-4.29,23.15-24.04,36.91-46.65,38.96H0S.2,1.45.2,1.45h44.72c11.6,1.06,23.42,4.97,31.73,13.26-3.23,4.94-6.02,10.1-7.59,15.84l-1.84,6.52c-.37-1.05-.8-1.69-1.26-2.52-4.49-8.07-12.45-13.14-21.63-14.2h-22.02c-.03,1.62.05,2.97,0,4.41-.06,1.91-.07,3.91-.08,5.81-.16,16.87-.21,33.82-.04,50.69.14.2.39.21.6.2,2.53-.17,6.43-.21,9.18-.22,10.64-.04,19.26.76,28.07-6.56,12.11-10.06,9.27-24.61,12.51-38.25C78.24,12.53,97.2-2.17,122.18.26c23.63,2.3,37,22.25,27.02,44.71-3.15,7.1-8.62,11.97-13.93,17.38-6.19,6.32-13.14,12.46-18.97,19.1-1.89,2.16-3.39,3.4-3.93,6.52-1.1,6.24,2.43,9.95,7.92,11.89.32.11.71-.04.59.49Z"/>
        <g>
          <path class="cls-2" d="M160.12,66.81V28.81c-.7-9.74-4.85-18.77-12.57-24.85-1.04-.82-2.28-1.44-3.32-2.25-.16-.13-.62-.46-.25-.45,5.56-.06,10.74-.27,16.13,1.29,12.08,3.51,20.31,13.48,21.31,26.07v38.51s16.84-3.57,16.84-3.57l.24.44-27.74,36.36-27.78-36.52c-.08-.45.45-.25.45-.25"/>
          <path class="cls-2" d="M162.54,100.36c-13.9,0-27.79,0-41.69,0-.46-.24-.38-.21-.7-.34-5.43-2.3-9.04-5.81-7.93-12.04.55-3.12,2.16-4.36,4.08-6.52l31.86.04,14.37,18.86Z"/>
        </g>
      </g>
    </g>
  </g>
</svg>